<?xml version="1.0" encoding="UTF-8"?>
<svg width="1683pt" height="1683pt" version="1.0" viewBox="0 0 1683 1683" xmlns="http://www.w3.org/2000/svg">
 <style>svg {background-color: #ffc800;}</style>
 <g transform="translate(0 1683) scale(.1 -.1)">
  <path d="m0 8415v-3415h8415 8415v3415 3415h-8415-8415v-3415zm16645 3246c20-1 20-8 20-3246 0-2877-2-3245-15-3246-8 0-3720-1-8248-2-8226-2-8232-2-8233 18-5 111-3 6454 2 6465 6 13 929 15 8231 13 4522-1 8232-2 8243-2z"/>
  <path d="m1365 11149c-22-5-51-10-64-13-44-10-175-76-228-117-156-117-255-323-255-529-1-177 67-337 196-465 414-412 1114-134 1131 450 6 193-56 346-195 485-68 69-102 94-170 127-47 23-115 48-153 56-72 16-197 19-262 6zm254-106c154-40 303-160 369-297 159-328-17-710-368-801-308-80-630 125-693 440-48 245 78 502 300 612 40 20 96 42 125 49 68 17 196 15 267-3z"/>
  <path d="m3679 11149c-20-4-49-10-65-13s-71-26-123-52c-250-124-399-406-359-679 13-92 19-110 65-205 37-77 60-109 122-171 42-42 97-88 122-103 59-34 158-74 201-81 18-3 48-8 66-11 23-5 32-2 33 7 1 8 2 31 4 52 3 29 0 37-13 38-112 5-252 73-341 164-272 277-197 730 149 905 215 109 473 67 645-105 118-117 177-263 171-423l-3-80 45-6c25-3 48-4 51 0 3 3 5 53 5 112 0 84-5 123-24 182-90 284-328 468-615 475-55 2-116-1-136-6z"/>
  <path d="m5965 11145c-140-31-268-105-360-208-77-86-143-217-158-313-4-29-2-32 25-38 60-12 64-10 82 56 50 181 187 325 368 390 90 32 265 32 356-1 275-96 434-372 376-651-14-69-47-149-76-189-24-32-23-36 18-67l36-28 19 25c31 40 76 140 94 209 18 68 24 207 12 275-39 227-209 433-422 512-110 41-262 53-370 28z"/>
  <path d="m8315 11154c-230-35-432-193-522-409-24-58-54-191-47-210 4-8 22-12 51-11 45 1 46 2 49 36 6 56 41 161 73 215 151 262 484 359 751 219 158-83 274-243 299-414l6-45 48-1c46-1 47-1 47 30 0 53-28 147-70 232-40 81-137 195-207 243-53 36-149 80-210 97-59 16-213 26-268 18z"/>
  <path d="m10560 11139c-409-105-621-547-444-928 76-163 225-295 397-351 42-13 46-12 52 16 2 11 7 29 11 41 5 17 1 24-12 29-59 20-154 70-193 102-61 48-62 49-104 105-135 177-151 423-39 625 33 60 144 171 204 204 345 191 764 2 841-379l14-68h44 44l-3 58c-4 103-80 262-171 361-67 73-219 163-306 182-129 28-232 29-335 3z"/>
  <path d="m12911 11150c-146-31-250-88-356-194-120-122-179-253-192-428-6-88 0-96 62-82l36 9 3 75c10 222 173 434 386 501 301 96 616-65 715-365 27-81 36-195 21-276-21-114-106-258-197-332-85-69-225-128-305-128h-34v-50c0-50 0-50 33-50 17 0 61 7 97 16 231 54 420 236 488 469 88 304-65 643-353 779-114 53-296 78-404 56z"/>
  <path d="m15205 11146c-197-42-373-175-460-346-51-101-70-178-70-295 0-128 6-163 42-254 124-314 463-486 788-401 257 68 456 291 490 550 33 244-64 478-259 624-149 112-356 159-531 122zm250-100c170-36 306-143 385-301 112-223 71-475-106-650-111-111-243-166-394-166-116 0-166 13-274 69-133 69-240 208-281 362-20 77-14 227 14 311 59 185 241 347 419 375 21 3 39 8 41 10 9 9 140 2 196-10z"/>
  <path d="m5053 10424c-692-96-1266-551-1506-1194-37-99-80-253-92-330-4-25-9-53-11-63-18-100-21-355-4-479 87-643 459-1171 1025-1456 268-135 517-195 810-196 207-1 273 6 455 50 159 38 379 126 515 207 315 187 572 466 729 790 45 92 102 236 122 307 18 62 55 248 61 305 10 90 10 341 0 425-67 550-379 1053-837 1345-250 160-479 244-795 291-79 12-381 10-472-2zm522-379c288-52 557-196 775-415 128-129 206-232 279-371 72-136 129-308 146-434 3-27 9-66 12-85 7-47 7-250-1-327-36-345-174-632-431-888-139-139-242-216-393-291-215-108-423-153-687-149-292 4-520 68-762 215-34 21-68 43-75 49s-41 33-75 61c-306 247-489 564-547 945-13 85-14 348-2 435 28 207 111 421 231 599 77 115 105 149 213 257 183 181 460 335 692 385 182 39 452 46 625 14z"/>
  <path d="m7814 10381c-2-2-4-820-4-1818v-1813l80-1c44-1 91-1 105-1s62 0 108 1l83 1v718l-1 719 215-2c118-1 218-3 221-4 3 0 27-31 54-68 27-38 53-72 58-78 4-5 84-113 178-240 94-126 176-237 182-245 7-8 37-49 67-90s61-82 67-90c18-22 369-495 417-562l41-57 108-2c129-1 136-1 283 0l116 1-19 24c-10 13-160 205-333 426s-329 421-346 444c-18 22-120 153-227 291-108 137-195 250-194 251s33 5 71 9c204 19 425 112 583 243 219 183 339 385 389 651 12 65 15 122 11 231-3 80-8 159-12 175-60 281-210 509-446 677-138 98-294 163-470 194-81 15-182 17-737 18-354 1-645-1-648-3zm1365-365c217-37 415-186 505-379 29-63 56-148 64-202 12-89 6-265-13-340-73-288-306-502-590-541-66-9-926-12-945-3-13 6-15 97-13 736 0 400 1 731 2 734 1 7 945 3 990-5z"/>
  <path d="m10729 10375c-4-37-3-3609 1-3615 5-9 110-13 278-11l92 1v718 718h398c371-1 520 4 617 19 139 22 322 93 442 171 32 21 60 41 63 44s31 28 63 55 88 85 123 129c126 156 193 307 230 516 10 55 11 270 2 320-51 277-129 433-302 605-189 187-420 301-676 331-95 11-1330 11-1331-1zm1386-363c77-17 161-48 223-84 62-34 189-155 215-203 95-174 112-239 112-430 0-129-3-160-23-225-85-271-277-450-542-504-48-9-189-13-532-14l-468-1v737 738l483-2c302-1 501-5 532-12z"/>
  <path d="m15317 9114c-1-1-27-5-57-8-30-2-67-9-82-15-16-6-28-9-28-6 0 2-28-8-62-22-201-81-353-262-404-479-4-16-8-69-10-119-10-284 159-539 422-638 104-39 149-47 264-43 107 3 222 33 288 73 114 70 155 104 211 177 225 294 178 704-107 932-64 51-171 105-247 123-48 12-183 30-188 25zm205-134c183-66 313-208 363-396 65-245-62-527-286-638-108-53-167-66-284-62-253 9-449 164-524 413-27 89-23 240 8 326 79 223 266 368 501 389 57 5 161-10 222-32z"/>
  <path d="m1329 9095c-329-80-549-398-507-733 32-253 207-464 457-549 96-33 242-40 346-17 312 70 531 351 520 669-10 309-215 559-517 630-77 18-224 18-299 0zm236-90c73-12 91-17 149-44 351-161 446-614 186-894-175-190-434-239-668-126-191 92-313 286-314 499-1 161 55 296 171 410 129 127 306 184 476 155z"/>
  <path d="m10477 9066c-268-110-436-365-422-641 5-105 11-136 44-221 59-151 179-282 324-352 45-22 94-43 109-46 25-6 28-3 37 31 16 55 15 58-26 72-89 29-151 69-223 141-119 119-172 253-165 415 5 136 49 249 132 347 57 67 179 150 246 168 46 12 48 14 42 44-16 77-13 76-98 42z"/>
  <path d="m13181 9059c-19-55-15-63 42-83 229-80 382-312 370-561-15-302-278-545-580-534-91 3-165 22-242 61-76 38-181 133-218 195-14 24-28 42-32 40-3-1-23-11-44-20l-37-17 16-33c74-144 242-266 434-313 89-21 249-12 341 19 192 66 334 196 410 377 79 187 66 402-35 585-57 102-171 211-277 263-121 59-134 61-148 21z"/>
  <path d="m3246 8819c-33-26-57-73-85-163-62-202-41-387 63-561 55-91 115-142 133-112 14 23 2 90-22 121-37 49-83 155-98 227-23 110-5 255 46 369 11 25 20 53 20 63-2 67-4 77-17 77-7 0-25-9-40-21z"/>
  <path d="m8575 7904c-22-8-80-17-130-21-49-3-92-7-94-9s-6-25-9-50l-4-47 93 6c52 3 105 8 118 11 27 6 121 37 121 39 0 1-7 20-14 42-16 46-26 50-81 29z"/>
  <path d="m1395 7058c-114-15-232-65-325-139-69-55-92-79-144-159-174-266-138-607 88-833 121-121 279-188 446-190 117-2 173 7 255 38 195 73 344 234 407 437 17 56 22 97 22 178 0 105-1 116-24 200-35 128-144 278-262 358-132 90-303 131-463 110zm220-110c189-43 345-191 411-388 28-84 25-244-5-335-32-94-91-184-159-246-48-43-139-100-157-99-3 0-18-6-33-14-43-22-162-38-236-32-426 36-661 516-427 872 133 204 367 297 606 242z"/>
  <path d="m3747 7064c-1-1-24-4-52-7-95-10-235-70-314-135-169-138-255-318-254-527 2-265 151-494 396-605 66-30 79-33 177-50 229-39 493 74 632 273 49 68 65 100 98 197 34 99 33 265-3 380-42 136-124 255-230 336-111 83-238 130-375 137-40 2-73 2-75 1zm207-125c231-69 391-275 401-516 12-278-178-522-451-578-391-81-743 265-668 657 63 331 398 534 718 437z"/>
  <path d="m8352 7062c-13-4-16-70-4-88 4-6 30-10 57-9 162 4 346-86 453-222 33-43 89-153 98-194 27-127 25-217-7-319-29-91-70-159-138-229-169-170-426-215-647-112-74 35-78 38-158 116-130 129-189 325-151 506 7 35 11 67 8 71-4 8-83 31-88 26-2-2-10-35-18-73-13-68-14-214-2-265 4-14 9-36 12-50s25-67 50-119c79-166 236-294 423-346 97-28 254-26 350 4 101 31 163 63 242 127 121 97 212 254 235 403 61 398-234 759-633 774-39 2-76 1-82-1z"/>
  <path d="m12935 7058c-123-18-256-80-353-164-81-69-161-197-197-314-20-66-28-226-14-295 6-27 12-60 15-73 9-45 78-173 123-229 102-126 239-208 406-241 17-4 73-6 125-6 288 2 540 193 626 473 57 185 21 409-90 566-39 54-134 155-147 155-4 0-14 6-21 13-41 40-191 101-274 113-72 9-144 10-199 2zm253-117c344-103 505-491 336-811-172-327-622-396-887-137-127 124-178 251-172 427 5 147 56 268 158 373 146 150 365 207 565 148z"/>
  <path d="m15248 7058c-163-21-332-117-432-244-309-394-98-966 393-1067 352-73 699 157 781 518 12 54 15 178 6 235-60 358-392 605-748 558zm252-118c177-53 318-193 376-374 100-316-97-652-421-720-301-63-599 126-669 424-75 317 146 643 464 687 19 3 36 6 38 8 9 9 157-9 212-25z"/>
  <path d="m10475 7017c-71-29-122-59-190-112-19-15-18-16 16-51l36-36 47 36c50 38 86 57 151 80 38 13 40 16 38 50-4 67-9 69-98 33z"/>
  <path d="m6441 6900c-12-22-19-40-14-40 15 0 108-94 142-143 34-50 77-149 87-202 12-62 11-181-3-239-83-358-473-544-802-384-79 38-91 47-163 122-123 128-176 308-144 492l7 41-43 11c-23 6-46 8-51 3-12-12-21-97-20-181 1-159 71-326 183-438 84-85 98-95 195-142 101-49 195-69 305-64 99 4 121 8 203 36 101 35 213 111 282 190 58 68 125 197 140 271 2 10 7 28 11 39 12 39 11 179-1 246-27 139-91 258-193 358-36 35-73 64-82 64s-26-18-39-40z"/>
  <path d="m11243 6723-40-27 28-60c151-324-37-708-388-789-133-32-293-6-419 68-114 66-215 203-254 342-20 73-21 220-1 282 6 19 9 37 7 39-9 8-81 30-87 26-14-8-31-105-34-191-10-327 225-613 550-670 63-12 205-8 265 7 286 67 500 324 513 616 6 115-25 253-75 342l-24 41-41-26z"/>
 </g>
</svg>
