<?xml version="1.0" standalone="no"?>
<!DOCTYPE svg PUBLIC "-//W3C//DTD SVG 20010904//EN"
 "http://www.w3.org/TR/2001/REC-SVG-20010904/DTD/svg10.dtd">
<svg version="1.0" xmlns="http://www.w3.org/2000/svg"
 width="1683.000000pt" height="1683.000000pt" viewBox="0 0 1683.000000 1683.000000"
 preserveAspectRatio="xMidYMid meet">
<metadata>
Created by potrace 1.14, written by Peter Selinger 2001-2017
</metadata>
<g transform="translate(0.000000,1683.000000) scale(0.100000,-0.100000)"
fill="#000000" stroke="none">
<path d="M0 8415 l0 -3415 8415 0 8415 0 0 3415 0 3415 -8415 0 -8415 0 0
-3415z m16645 3246 c20 -1 20 -8 20 -3246 0 -2877 -2 -3245 -15 -3246 -8 0
-3720 -1 -8248 -2 -8226 -2 -8232 -2 -8233 18 -5 111 -3 6454 2 6465 6 13 929
15 8231 13 4522 -1 8232 -2 8243 -2z"/>
<path d="M1345 11145 c-204 -39 -393 -196 -475 -392 -105 -252 -52 -531 139
-723 89 -90 215 -165 311 -185 254 -51 481 18 650 198 189 202 230 498 103
756 -55 111 -178 232 -293 288 -139 68 -286 87 -435 58z m274 -102 c106 -27
180 -71 261 -152 386 -390 58 -1034 -488 -956 -224 31 -423 224 -465 451 -67
351 203 676 557 672 44 -1 105 -7 135 -15z"/>
<path d="M3708 11155 c-2 -1 -21 -5 -43 -8 -112 -16 -248 -90 -345 -187 -146
-147 -217 -356 -188 -555 13 -92 19 -110 65 -205 37 -77 60 -109 122 -171 42
-42 97 -88 122 -103 59 -34 158 -74 201 -81 18 -3 48 -8 66 -11 23 -5 32 -2
33 7 1 8 2 31 4 52 3 29 0 37 -13 38 -112 5 -252 73 -341 164 -272 277 -197
730 149 905 249 126 564 43 718 -189 72 -107 96 -187 96 -317 l1 -102 44 -6
c24 -3 47 -4 50 0 3 3 5 53 5 112 0 81 -6 125 -23 180 -87 287 -345 480 -640
480 -44 0 -81 -1 -83 -3z"/>
<path d="M5965 11145 c-193 -43 -362 -169 -449 -335 -54 -104 -87 -220 -63
-220 7 -1 28 -3 48 -6 l35 -5 18 63 c50 181 187 325 368 390 90 32 265 32 356
-1 275 -96 434 -372 376 -651 -14 -69 -47 -149 -76 -189 -24 -32 -23 -36 18
-67 l36 -28 19 25 c31 40 76 140 94 209 18 68 24 207 12 275 -39 227 -209 433
-422 512 -110 41 -262 53 -370 28z"/>
<path d="M8315 11154 c-230 -35 -432 -193 -522 -409 -24 -58 -54 -191 -47
-210 4 -8 22 -12 51 -11 45 1 46 2 49 36 6 56 41 161 73 215 151 262 484 359
751 219 158 -83 274 -243 299 -414 l6 -45 48 -1 c46 -1 47 -1 47 30 0 53 -28
147 -70 232 -40 81 -137 195 -207 243 -53 36 -149 80 -210 97 -59 16 -213 26
-268 18z"/>
<path d="M10560 11139 c-127 -33 -214 -83 -310 -179 -131 -130 -189 -263 -195
-450 -7 -213 84 -405 255 -542 51 -41 170 -102 216 -112 29 -6 32 -4 39 21 14
57 14 64 -3 70 -57 18 -152 69 -191 101 -61 48 -62 49 -104 105 -160 210 -150
513 25 712 310 352 888 198 981 -262 l14 -68 44 0 44 0 -3 58 c-4 103 -80 262
-171 361 -67 73 -219 163 -306 182 -129 28 -232 29 -335 3z"/>
<path d="M12910 11150 c-132 -24 -249 -88 -351 -189 -122 -122 -183 -256 -196
-428 -7 -94 -1 -102 62 -87 l36 9 3 75 c13 285 257 521 549 529 311 9 578
-246 579 -554 0 -101 -6 -133 -42 -225 -48 -119 -138 -221 -250 -283 -57 -31
-172 -67 -216 -67 l-34 0 0 -50 c0 -50 0 -50 33 -50 17 0 61 7 97 16 291 68
508 338 512 634 1 47 -2 99 -6 115 -3 17 -8 40 -10 51 -22 116 -114 267 -212
350 -63 53 -166 110 -244 135 -73 23 -237 33 -310 19z"/>
<path d="M15205 11146 c-197 -42 -373 -175 -460 -346 -51 -101 -70 -178 -70
-295 0 -128 6 -163 42 -254 124 -314 463 -486 788 -401 257 68 456 291 490
550 35 259 -75 503 -293 648 -50 33 -84 50 -157 78 -85 32 -240 41 -340 20z
m241 -97 c202 -36 384 -209 439 -415 79 -296 -109 -611 -410 -689 -60 -16
-183 -21 -240 -10 -213 40 -393 210 -449 422 -35 131 -7 309 66 429 78 129
233 239 366 260 20 3 39 8 41 10 8 8 129 4 187 -7z"/>
<path d="M5217 10454 c-1 -1 -44 -4 -95 -8 -346 -24 -691 -162 -990 -393 -289
-224 -505 -529 -621 -878 -44 -131 -44 -134 -73 -280 -22 -116 -33 -423 -18
-525 17 -116 20 -129 31 -177 14 -62 20 -86 23 -98 2 -5 6 -23 10 -40 4 -16
11 -39 16 -50 4 -11 20 -54 35 -95 31 -83 106 -240 149 -310 78 -125 103 -159
202 -274 213 -247 486 -426 830 -547 45 -15 92 -30 105 -33 13 -3 56 -12 94
-20 146 -31 225 -39 380 -39 208 0 367 25 570 89 81 26 100 34 210 82 550 245
955 757 1074 1357 149 753 -181 1526 -827 1939 -304 194 -636 293 -1010 300
-51 1 -93 1 -95 0z m208 -408 c50 -3 101 -8 115 -11 14 -3 50 -10 80 -16 299
-58 626 -263 831 -521 234 -296 333 -588 324 -963 -9 -393 -150 -720 -430
-1000 -209 -209 -431 -335 -710 -401 -95 -23 -136 -27 -305 -29 -133 -3 -219
1 -270 10 -41 8 -88 16 -105 19 -111 20 -325 110 -446 188 -123 79 -343 282
-396 366 -10 15 -20 29 -23 32 -18 17 -74 108 -112 180 -71 137 -125 304 -144
450 -3 25 -7 56 -10 70 -6 34 -6 267 0 310 3 19 8 55 11 80 50 384 313 782
670 1012 214 138 440 212 690 225 61 3 112 7 113 9 2 1 9 1 15 -1 7 -2 53 -6
102 -9z"/>
<path d="M7795 8567 l0 -1834 202 0 c199 0 203 0 204 21 0 12 1 335 1 719 l1
697 206 0 206 -1 35 -51 c19 -28 39 -56 45 -62 6 -6 55 -72 110 -146 55 -74
230 -310 390 -525 160 -214 334 -449 388 -521 l97 -132 270 1 c149 0 270 2
270 4 0 2 -113 149 -252 326 -138 177 -290 371 -337 432 -47 60 -93 119 -103
130 -9 11 -100 128 -202 260 -103 132 -193 248 -202 258 -19 24 -10 37 27 37
37 0 168 27 229 47 88 28 247 112 320 168 142 109 260 246 331 386 37 75 77
180 86 229 2 14 9 45 15 70 25 111 19 316 -17 493 -17 84 -122 305 -165 347
-3 3 -17 21 -32 40 -160 210 -428 370 -713 426 -22 4 -348 9 -725 11 l-685 4
0 -1834z m1416 1423 c332 -69 544 -366 526 -734 -6 -115 -9 -134 -28 -195 -65
-204 -220 -374 -409 -449 -113 -45 -170 -49 -647 -48 l-448 1 -1 723 -1 722
461 -1 c403 -1 472 -3 547 -19z"/>
<path d="M10710 8566 l0 -1834 203 2 202 1 0 718 0 717 425 1 c234 1 439 2
456 4 45 4 125 14 154 20 14 2 39 7 55 11 17 3 68 19 115 36 375 133 647 445
726 830 5 27 18 191 18 228 -4 264 -88 496 -249 686 -179 212 -410 344 -687
394 -104 19 -155 20 -765 20 l-653 0 0 -1834z m1438 1419 c324 -83 517 -355
506 -713 -3 -86 -23 -203 -43 -247 -88 -198 -187 -309 -346 -385 -139 -67
-165 -69 -679 -71 -251 0 -460 2 -463 5 -5 4 -8 1329 -4 1419 1 17 27 17 469
16 457 -1 469 -1 560 -24z"/>
<path d="M15317 9114 c-1 -1 -30 -5 -64 -8 -181 -17 -370 -137 -477 -304 -125
-194 -138 -450 -33 -657 83 -165 250 -298 429 -344 414 -107 828 212 830 639
0 87 -9 142 -37 223 -34 99 -80 172 -160 252 -116 115 -242 176 -403 192 -45
5 -84 8 -85 7z m205 -134 c90 -33 149 -70 213 -135 67 -66 104 -125 134 -206
113 -314 -71 -657 -399 -744 -78 -21 -237 -14 -314 14 -57 20 -138 63 -163 85
-149 135 -216 264 -222 429 -10 286 200 541 480 581 97 14 188 6 271 -24z"/>
<path d="M1325 9094 c-179 -43 -354 -182 -433 -344 -103 -210 -102 -422 3
-617 42 -76 55 -93 132 -169 73 -72 177 -130 285 -161 61 -17 98 -20 180 -18
138 4 205 20 308 77 223 123 354 352 345 603 -10 309 -215 559 -517 630 -79
18 -224 18 -303 -1z m240 -88 c282 -37 501 -305 482 -592 -15 -228 -159 -420
-375 -502 -89 -34 -251 -40 -340 -13 -260 79 -428 314 -415 581 13 263 231
495 497 529 56 7 76 7 151 -3z"/>
<path d="M10477 9066 c-269 -111 -436 -364 -422 -641 5 -105 11 -136 44 -221
59 -151 179 -282 324 -352 45 -22 94 -43 109 -46 25 -6 28 -3 37 31 16 55 15
58 -26 72 -89 29 -151 69 -223 141 -119 119 -172 253 -165 415 5 136 49 249
132 347 57 67 179 150 246 168 46 12 48 14 42 44 -16 77 -13 76 -98 42z"/>
<path d="M13181 9059 c-19 -55 -15 -63 42 -83 74 -26 144 -70 203 -130 273
-273 203 -723 -142 -903 -158 -83 -351 -83 -513 -1 -76 38 -181 133 -218 195
-14 24 -28 42 -32 40 -3 -1 -23 -11 -44 -20 l-37 -17 16 -33 c74 -144 242
-266 434 -313 89 -21 249 -12 341 19 191 65 335 197 409 374 39 94 51 157 51
268 -1 243 -146 477 -362 583 -121 59 -134 61 -148 21z"/>
<path d="M3246 8819 c-33 -26 -57 -73 -85 -163 -62 -202 -41 -387 63 -561 55
-91 115 -142 133 -112 14 23 2 90 -22 121 -65 86 -114 243 -109 356 2 65 29
177 57 240 11 25 20 53 20 63 -2 67 -4 77 -17 77 -7 0 -25 -9 -40 -21z"/>
<path d="M8575 7904 c-22 -8 -80 -17 -130 -21 -49 -3 -92 -7 -94 -9 -2 -2 -6
-25 -9 -50 l-4 -47 93 6 c52 3 105 8 118 11 38 9 121 37 121 42 0 17 -35 84
-44 84 -6 -1 -29 -8 -51 -16z"/>
<path d="M1430 7063 c-167 -19 -321 -93 -430 -205 -45 -47 -113 -153 -138
-218 -95 -241 -39 -518 143 -702 136 -139 301 -208 485 -203 107 3 145 10 227
41 194 73 342 232 405 436 17 56 22 97 22 178 0 105 -1 116 -24 200 -35 128
-144 278 -262 358 -119 81 -299 129 -428 115z m185 -115 c189 -43 345 -191
411 -388 28 -84 25 -244 -5 -335 -85 -251 -325 -412 -580 -391 -431 36 -668
513 -432 872 133 203 368 297 606 242z"/>
<path d="M3705 7058 c-27 -4 -57 -9 -65 -11 -8 -2 -28 -7 -45 -12 -109 -29
-245 -123 -327 -225 -184 -232 -190 -569 -13 -806 89 -118 216 -206 360 -249
89 -27 278 -25 363 3 151 51 272 138 354 255 49 68 65 100 98 197 19 54 23 86
23 185 0 102 -4 132 -26 200 -59 181 -184 325 -350 404 -114 54 -255 76 -372
59z m219 -109 c143 -34 261 -120 348 -253 50 -78 79 -171 83 -275 17 -393
-365 -680 -744 -560 -207 65 -372 280 -384 501 -22 379 329 675 697 587z"/>
<path d="M8352 7062 c-13 -4 -16 -70 -4 -88 4 -6 30 -10 57 -9 76 2 172 -21
253 -61 353 -173 425 -635 142 -914 -162 -160 -422 -201 -635 -102 -70 33 -98
54 -170 128 -120 122 -177 321 -140 495 7 35 11 67 8 71 -4 8 -83 31 -88 26
-2 -2 -10 -35 -18 -73 -12 -63 -15 -210 -4 -260 54 -243 233 -445 453 -510 78
-24 92 -26 184 -29 328 -12 627 232 677 553 61 395 -234 758 -629 774 -41 2
-80 1 -86 -1z"/>
<path d="M12935 7058 c-215 -32 -405 -169 -500 -360 -25 -51 -52 -124 -60
-163 -18 -86 -13 -238 10 -315 68 -226 241 -397 471 -466 94 -29 266 -24 369
9 130 43 241 119 333 230 30 37 89 153 107 214 50 160 32 347 -48 501 -31 60
-112 161 -159 197 -21 17 -45 35 -52 42 -23 20 -131 73 -183 88 -88 27 -202
36 -288 23z m255 -117 c302 -93 475 -422 375 -716 -24 -70 -42 -109 -73 -150
-113 -156 -276 -240 -462 -240 -105 1 -167 14 -251 56 -196 97 -316 290 -317
509 -1 374 371 650 728 541z"/>
<path d="M15253 7059 c-225 -28 -429 -180 -527 -391 -29 -63 -53 -177 -55
-258 -6 -265 160 -520 406 -624 142 -60 314 -68 458 -22 356 113 551 496 432
846 -103 301 -401 488 -714 449z m247 -119 c419 -124 539 -664 215 -962 -127
-117 -327 -170 -501 -133 -187 40 -351 190 -420 385 -24 70 -29 212 -10 294
52 219 247 404 456 432 25 3 46 7 48 9 10 9 157 -9 212 -25z"/>
<path d="M10475 7017 c-71 -29 -122 -59 -190 -112 -19 -15 -18 -16 16 -51 l36
-36 47 36 c50 38 86 57 151 80 38 13 40 16 38 50 -4 67 -9 69 -98 33z"/>
<path d="M6441 6900 c-12 -22 -19 -40 -14 -40 15 0 108 -94 142 -143 34 -50
77 -149 87 -202 4 -16 7 -63 9 -104 11 -318 -261 -589 -580 -576 -96 3 -149
16 -234 58 -78 37 -90 46 -162 120 -123 126 -177 309 -145 493 l7 41 -43 11
c-23 6 -46 8 -51 3 -12 -12 -21 -97 -20 -181 2 -240 144 -464 363 -573 114
-56 204 -76 320 -71 101 4 126 8 205 37 145 51 270 155 347 286 27 45 66 138
74 174 2 10 6 28 10 39 12 39 11 179 -1 246 -27 139 -91 258 -193 358 -36 35
-73 64 -82 64 -9 0 -26 -18 -39 -40z"/>
<path d="M11243 6723 l-40 -27 28 -60 c151 -324 -37 -708 -387 -789 -72 -17
-212 -16 -269 2 -22 7 -74 29 -115 49 -134 65 -256 215 -291 358 -18 70 -19
207 -3 267 7 28 12 52 11 53 -10 9 -81 33 -87 29 -15 -10 -32 -103 -35 -195
-9 -327 228 -613 555 -668 59 -11 202 -6 260 8 286 67 500 324 513 616 6 115
-25 253 -75 342 l-24 41 -41 -26z"/>
</g>
</svg>
